<?xml version="1.0" encoding="UTF-8"?>
<svg xmlns="http://www.w3.org/2000/svg" xmlns:xlink="http://www.w3.org/1999/xlink" width="136" height="171.296875" viewBox="0 0 136 171.296875">
<defs>
<g>
<g id="glyph-0-0">
<path d="M 48.542969 -8.199219 C 47.011719 -8.199219 45.046875 -8.363281 42.640625 -8.691406 C 40.234375 -9.019531 37.625 -9.429688 34.808594 -9.921875 C 31.992188 -10.414062 29.179688 -10.945312 26.363281 -11.519531 C 23.546875 -12.09375 20.894531 -12.65625 18.410156 -13.203125 C 15.921875 -13.75 13.832031 -14.226562 12.136719 -14.636719 C 10.441406 -15.046875 9.320312 -15.308594 8.773438 -15.414062 C 7.953125 -14.707031 7.214844 -14.035156 6.558594 -13.40625 C 5.902344 -12.777344 5.4375 -12.328125 5.164062 -12.054688 L 4.019531 -13.203125 C 5.273438 -14.460938 6.941406 -15.949219 9.019531 -17.671875 C 11.097656 -19.394531 13.460938 -21.183594 16.113281 -23.042969 C 18.765625 -24.902344 21.511719 -26.59375 24.355469 -28.125 L 20.089844 -37.882812 L 21.566406 -38.539062 L 25.746094 -28.863281 C 29.136719 -30.613281 32.730469 -32.089844 36.53125 -33.292969 C 40.332031 -34.496094 44.144531 -35.097656 47.96875 -35.097656 C 52.671875 -35.097656 57.003906 -34.46875 60.96875 -33.210938 C 64.929688 -31.953125 68.578125 -30.421875 71.914062 -28.617188 L 76.34375 -38.539062 L 77.816406 -37.882812 L 73.390625 -27.796875 C 75.25 -26.757812 77.011719 -25.691406 78.679688 -24.601562 C 80.347656 -23.507812 81.945312 -22.414062 83.476562 -21.320312 C 85.882812 -19.679688 88.136719 -18.21875 90.242188 -16.933594 C 92.34375 -15.648438 94.355469 -14.816406 96.269531 -14.433594 L 95.941406 -12.792969 C 94.628906 -13.066406 93.289062 -13.542969 91.921875 -14.226562 C 90.554688 -14.910156 89.132812 -15.714844 87.65625 -16.644531 C 87.328125 -16.535156 86.375 -16.261719 84.789062 -15.824219 C 83.203125 -15.386719 81.222656 -14.855469 78.84375 -14.226562 C 76.464844 -13.597656 73.867188 -12.929688 71.054688 -12.21875 C 68.238281 -11.507812 65.410156 -10.851562 62.566406 -10.25 C 59.722656 -9.648438 57.085938 -9.15625 54.652344 -8.773438 C 52.21875 -8.390625 50.183594 -8.199219 48.542969 -8.199219 Z M 47.96875 -9.921875 C 50.15625 -9.921875 52.125 -10.453125 53.875 -11.519531 C 55.625 -12.585938 57.03125 -13.996094 58.097656 -15.742188 C 59.164062 -17.492188 59.695312 -19.433594 59.695312 -21.566406 C 59.695312 -23.753906 59.164062 -25.71875 58.097656 -27.46875 C 57.03125 -29.21875 55.625 -30.628906 53.875 -31.691406 C 52.125 -32.757812 50.15625 -33.292969 47.96875 -33.292969 C 45.839844 -33.292969 43.882812 -32.757812 42.105469 -31.691406 C 40.332031 -30.628906 38.910156 -29.21875 37.84375 -27.46875 C 36.777344 -25.71875 36.242188 -23.753906 36.242188 -21.566406 C 36.242188 -19.433594 36.777344 -17.492188 37.84375 -15.742188 C 38.910156 -13.996094 40.332031 -12.585938 42.105469 -11.519531 C 43.882812 -10.453125 45.839844 -9.921875 47.96875 -9.921875 Z M 55.1875 -10.414062 C 57.917969 -10.851562 60.886719 -11.425781 64.082031 -12.136719 C 67.28125 -12.847656 70.382812 -13.597656 73.390625 -14.390625 C 76.398438 -15.183594 79.019531 -15.894531 81.261719 -16.523438 C 83.503906 -17.152344 85.0625 -17.574219 85.9375 -17.792969 L 82.574219 -20.007812 C 80.167969 -21.703125 77.558594 -23.425781 74.742188 -25.175781 C 71.925781 -26.921875 68.878906 -28.496094 65.601562 -29.890625 C 62.320312 -31.28125 58.738281 -32.28125 54.859375 -32.882812 C 56.769531 -31.734375 58.316406 -30.164062 59.492188 -28.167969 C 60.667969 -26.171875 61.253906 -23.972656 61.253906 -21.566406 C 61.253906 -19.214844 60.695312 -17.070312 59.574219 -15.128906 C 58.453125 -13.1875 56.988281 -11.617188 55.1875 -10.414062 Z M 40.589844 -10.496094 C 38.839844 -11.699219 37.417969 -13.269531 36.324219 -15.210938 C 35.234375 -17.152344 34.6875 -19.269531 34.6875 -21.566406 C 34.6875 -23.917969 35.234375 -26.0625 36.324219 -28.003906 C 37.417969 -29.945312 38.867188 -31.488281 40.671875 -32.636719 C 36.570312 -31.816406 32.609375 -30.476562 28.78125 -28.617188 C 24.957031 -26.757812 21.46875 -24.75 18.328125 -22.589844 C 15.183594 -20.433594 12.519531 -18.476562 10.332031 -16.726562 C 11.152344 -16.507812 12.640625 -16.152344 14.800781 -15.660156 C 16.960938 -15.171875 19.515625 -14.597656 22.46875 -13.941406 C 25.421875 -13.285156 28.480469 -12.65625 31.652344 -12.054688 C 34.824219 -11.453125 37.800781 -10.933594 40.589844 -10.496094 Z M 40.589844 -10.496094 "/>
</g>
</g>
</defs>
<g fill="#fff" stroke="#fff" stroke-width="5" stroke-linejoin="round" paint-order="stroke fill">
<use xlink:href="#glyph-0-0" x="18" y="126.5625"/>
</g>
</svg>
